<?xml version="1.0" encoding="utf-8"?>
<!-- Generator: Adobe Illustrator 26.0.1, SVG Export Plug-In . SVG Version: 6.00 Build 0)  -->
<svg version="1.1" id="svg" xmlns="http://www.w3.org/2000/svg" xmlns:xlink="http://www.w3.org/1999/xlink" x="0px" y="0px"
	 viewBox="0 0 299.8 57.1" style="enable-background:new 0 0 299.8 57.1;" xml:space="preserve">
<style type="text/css">
	.st0{fill-rule:evenodd;clip-rule:evenodd;fill:#FFFFFF;}
	.st1{fill-rule:evenodd;clip-rule:evenodd;fill:#112E54;}
	.st2{fill-rule:evenodd;clip-rule:evenodd;fill:#183E6B;}
	.st3{fill-rule:evenodd;clip-rule:evenodd;fill:#244874;}
	.st4{fill-rule:evenodd;clip-rule:evenodd;fill:#2C5077;}
	.st5{fill-rule:evenodd;clip-rule:evenodd;fill:#3C5D81;}
	.st6{fill-rule:evenodd;clip-rule:evenodd;fill:#476688;}
	.st7{fill-rule:evenodd;clip-rule:evenodd;fill:#506D8E;}
	.st8{fill-rule:evenodd;clip-rule:evenodd;fill:#577392;}
	.st9{fill-rule:evenodd;clip-rule:evenodd;fill:#617A98;}
	.st10{fill-rule:evenodd;clip-rule:evenodd;fill:#6F87A4;}
	.st11{fill-rule:evenodd;clip-rule:evenodd;fill:#ED6517;}
	.st12{fill-rule:evenodd;clip-rule:evenodd;fill:#879BB3;}
	.st13{fill-rule:evenodd;clip-rule:evenodd;fill:#FF6A13;}
	.st14{fill-rule:evenodd;clip-rule:evenodd;fill:#98A8BC;}
	.st15{fill-rule:evenodd;clip-rule:evenodd;fill:#A8B6C7;}
	.st16{fill-rule:evenodd;clip-rule:evenodd;fill:#B7C3D1;}
	.st17{fill-rule:evenodd;clip-rule:evenodd;fill:#C3CDD8;}
	.st18{fill-rule:evenodd;clip-rule:evenodd;fill:#CFD7E0;}
	.st19{fill-rule:evenodd;clip-rule:evenodd;fill:#D9DFE6;}
	.st20{fill-rule:evenodd;clip-rule:evenodd;fill:#E7EBEF;}
	.st21{fill-rule:evenodd;clip-rule:evenodd;fill:#F7F8F9;}
</style>
<path id="path0" class="st0" d="M293.7,20c0,13.4-0.1,15.6-0.3,16.3c-1.1,3.5-2.7,4-13.1,4c-12,0-12.1-0.1-12.1-9.9
	c0-9.3-0.5-8.9,12.7-8.9c6,0,8.7,0.1,9.1,0.2l0.6,0.2v-2.7v-2.7l-0.5-0.1c-2.7-0.5-15-0.6-18.3,0c-7.8,1.3-9.9,4.5-9.9,14.7
	c0,12.4,3,14.8,18.6,14.8c11.8,0,15.8-1.3,17.8-5.8c1.1-2.4,1.1-3.1,1.2-20l0.1-15.4h-2.9h-2.9L293.7,20 M14.2,15.6
	C7.8,16,4.3,17.2,2.5,19.7c-2.2,3-2.3,4.1-2.3,23l0,14h2.9H6l0-14.5c0-22.3-0.8-20.8,11.8-21.1c13-0.3,13.7,0.1,13.9,8.4
	c0.3,8.5-0.4,9.8-5.2,10.4c-3.1,0.4-14.7,0.2-16.9-0.2l-0.5-0.1v2.7c0,3.1-0.3,2.8,2.9,3.1c2.6,0.2,13.7,0.1,16-0.2
	c7.4-1,9.8-4.5,9.8-14.7c0-9-1.8-12.5-7.4-14C27,15.5,20.5,15.2,14.2,15.6 M40,30.5v14.9h3h3V30.5V15.6h-3h-3V30.5 M60.9,15.8
	c-4.7,0.5-8.1,2-9.6,4.4c-2.2,3.5-2.6,5.7-2.6,17.3v7.6h3h3l0.1-9.5c0.1-15-0.5-14.3,13-14.3c13.6,0,13.1-0.6,13.2,14.4l0.1,9.3h3h3
	L87,36.4c-0.1-9.4-0.2-10.7-1.1-13.3c-1.4-4.2-4.1-6.3-9.5-7.2C74.5,15.6,63.5,15.5,60.9,15.8 M101,16.1
	c-9.3,0.8-11.7,3.8-11.7,14.7c0,8.5,1.3,11.7,5.7,13.6c4.2,1.8,20.7,1.9,25.9,0.1c2.8-1,5.1-3.8,5.5-6.8l0.1-1h-2.9l-2.9,0l-0.3,0.7
	c-1,2.4-3.3,3-13.1,3c-11.6,0-11.7,0-11.8-9.4c-0.1-9.8-0.4-9.6,12.8-9.6c11.3,0,12.5,0.5,12.7,5.1c0.1,1.7,1.1,1.6-12,1.6H97.5v2.6
	v2.6l13.7,0c15.4-0.1,14.4,0,15.2-1.3c0.3-0.6,0.4-0.9,0.3-2.7c-0.2-9.4-2.8-12.3-11.8-13.1C112.6,15.9,103.3,15.9,101,16.1
	 M126,16.5c0.1,0.3,1,2.2,2,4.1c0.9,1.9,1.8,3.7,1.8,3.9c0.1,0.2,0.7,1.6,1.5,3.2c0.8,1.5,1.7,3.6,2.2,4.5c0.4,0.9,1.5,3.3,2.5,5.3
	s2.1,4.4,2.5,5.3c1.3,2.8,0.8,2.5,4.2,2.5h2.9l0.2-0.5c0.1-0.3,0.2-0.6,0.3-0.9c0.1-0.2,0.9-2.4,1.8-4.8c0.9-2.4,1.9-4.9,2.1-5.6
	c1-3,3.9-9.9,4.1-10c0.4-0.1,1.8,2.9,3.5,7.7c0.3,0.8,1,2.6,1.6,4c0.6,1.5,1.4,3.4,1.7,4.2c0.3,0.9,0.9,2.5,1.4,3.6l0.8,2l3.1,0
	l3.1,0l0.1-0.5c0.1-0.4,0.8-1.9,3.3-7c0.4-0.9,1-2.1,1.2-2.7c0.3-0.6,1.1-2.4,1.9-4.1c0.8-1.6,1.6-3.3,1.7-3.7c0.1-0.4,1-2.3,2-4.3
	c1-2,1.8-3.8,1.9-4c0.1-0.2,0.4-1,0.8-1.7c0.4-0.7,0.6-1.4,0.6-1.5c0-0.1-1.1-0.2-3-0.2h-3l-1.6,3.4c-0.9,1.9-1.9,4-2.3,4.9
	c-0.4,0.8-1.3,2.7-2,4.3c-0.7,1.5-1.5,3.1-1.7,3.6c-2.1,5.1-2.8,5.6-4.1,2.4c-0.4-1-1.2-2.9-1.7-4.2c-0.6-1.4-1.3-3.2-1.6-4
	c-0.3-0.8-1.3-3.4-2.3-5.8l-1.8-4.3l-3.3,0l-3.3,0l-0.4,1c-0.2,0.5-0.6,1.5-0.9,2.2c-0.2,0.7-0.9,2.4-1.5,3.8
	c-0.6,1.4-1.4,3.4-1.8,4.4c-1.7,4.3-2.1,5.4-2.8,7.1c-1.1,2.7-1.7,2.8-2.7,0.5c-0.3-0.7-0.8-1.7-1-2.1c-0.2-0.5-0.9-1.9-1.5-3.2
	c-0.6-1.3-1.6-3.6-2.3-5c-0.7-1.4-1.6-3.4-2-4.4c-0.4-1-1-2.4-1.3-3l-0.6-1.2h-3.2h-3.2L126,16.5 M194.4,16
	c-10.1,0.7-12.8,3.8-12.8,14.9c0,9.3,2.1,13,8,14.2c5,1,15,1.1,19.9,0.2c0.8-0.1,1.8-0.3,2.1-0.3c5.5-0.8,8.3-6.9,7.6-16.8
	c-0.6-8.8-3.1-11.3-11.9-12.1C205.7,15.9,196.3,15.9,194.4,16 M234.6,16c-10.1,0.8-12.6,3.5-12.9,13.5c-0.4,13.7,2.5,16.3,18.6,16.3
	c14.6,0,18.1-2.1,19-11.3c0.9-9.9-1.2-15.8-6.4-17.4C250,16.1,240.3,15.5,234.6,16 M209.3,21.6c3.5,0.7,4,1.8,4,8.8
	c0,9.5-0.5,9.9-13.2,9.9c-12,0-12.2-0.2-12.2-9.7c0-9.3-0.3-9.1,12.4-9.2C206.4,21.4,208.3,21.5,209.3,21.6 M250.3,21.8
	c2.6,0.8,3.1,2,3.2,7.7c0.2,10.3-0.4,10.8-13.3,10.8c-11.4,0-11.9-0.2-12.2-7.1c-0.4-9.2,0.1-10.7,3.6-11.5
	C233.4,21.3,249,21.4,250.3,21.8"/>
<path id="path1" class="st1" d="M40.1,8.9c0,0.3,0,0.5,0.1,0.3s0-0.4,0-0.6C40.1,8.4,40.1,8.6,40.1,8.9 M46.7,10l-0.6,0.6L46.7,10
	c0.6-0.5,0.8-0.6,0.6-0.6C47.3,9.4,47,9.7,46.7,10 M91.8,18.9l-0.5,0.5L91.8,18.9c0.3-0.2,0.6-0.5,0.6-0.5
	C92.4,18.3,92.2,18.4,91.8,18.9 M181.3,31.1c0,1.1,0,1.5,0.1,1c0-0.5,0-1.4,0-1.9C181.3,29.6,181.3,30,181.3,31.1 M48.4,39
	c0,2.8,0,3.9,0.1,2.6c0-1.3,0-3.6,0-5C48.5,35.1,48.4,36.2,48.4,39"/>
<path id="path7" class="st2" d="M18.7,15.2c0.3,0,0.8,0,1.2,0c0.3,0,0.1-0.1-0.5-0.1C18.7,15.1,18.4,15.2,18.7,15.2 M46.3,30.6
	c0,8.3,0,11.7,0,7.5c0-4.1,0-10.9,0-15.1C46.3,18.9,46.3,22.3,46.3,30.6 M55,36.5c0,4.9,0,6.8,0,4.4c0-2.5,0-6.4,0-8.8
	C55,29.6,55,31.6,55,36.5 M213.1,30.4c0,1.4,0,2,0.1,1.3s0-1.9,0-2.6C213.1,28.4,213.1,29,213.1,30.4 M221.4,29.2
	c0,0.5,0,0.6,0.1,0.4c0-0.3,0-0.6,0-0.8C221.5,28.5,221.4,28.7,221.4,29.2 M253.3,30.5c0,1.2,0,1.7,0.1,1c0-0.6,0-1.6,0-2.2
	C253.3,28.8,253.3,29.3,253.3,30.5 M221.4,32.6c0,0.4,0,0.6,0.1,0.4c0-0.2,0-0.5,0-0.8C221.5,32,221.4,32.2,221.4,32.6 M48.4,44.7
	c0,0.5,0,0.6,0.1,0.4c0-0.3,0-0.6,0-0.8C48.5,44,48.4,44.2,48.4,44.7 M-50.5-170.9"/>
<path id="path8" class="st3" d="M63.2,15.4c0.2,0,0.4,0,0.6,0c0.2,0,0-0.1-0.3-0.1S63.1,15.3,63.2,15.4 M71.8,15.4
	c0.2,0,0.4,0,0.6,0c0.2,0,0-0.1-0.3-0.1S71.6,15.3,71.8,15.4 M103.8,15.7c0.2,0,0.5,0,0.7,0c0.2,0,0-0.1-0.4-0.1
	C103.8,15.6,103.6,15.6,103.8,15.7 M112.1,15.7c0.2,0,0.4,0,0.6,0c0.2,0,0-0.1-0.3-0.1C112.1,15.6,111.9,15.6,112.1,15.7
	 M196.2,15.7c0.2,0,0.5,0,0.8,0c0.2,0,0-0.1-0.4-0.1C196.1,15.6,196,15.6,196.2,15.7 M204.5,15.7c0.2,0,0.5,0,0.7,0
	c0.2,0,0-0.1-0.4-0.1C204.4,15.6,204.3,15.6,204.5,15.7 M236.3,15.7c0.2,0,0.5,0,0.7,0c0.2,0,0-0.1-0.4-0.1
	C236.3,15.6,236.1,15.6,236.3,15.7 M244.6,15.7c0.2,0,0.4,0,0.6,0c0.2,0,0-0.1-0.3-0.1C244.6,15.6,244.4,15.6,244.6,15.7
	 M276.5,15.7c0.2,0,0.5,0,0.7,0c0.2,0,0-0.1-0.4-0.1C276.4,15.6,276.3,15.6,276.5,15.7 M284.8,15.7c0.2,0,0.5,0,0.7,0
	c0.2,0,0-0.1-0.4-0.1C284.8,15.6,284.6,15.6,284.8,15.7 M261.6,30.8c0,1.2,0,1.7,0.1,1c0-0.6,0-1.6,0-2.2
	C261.6,29.1,261.6,29.6,261.6,30.8 M6.3,43.7c0,7.3,0,10.3,0,6.6c0-3.6,0-9.6,0-13.2C6.3,33.5,6.3,36.4,6.3,43.7 M107.3,46.2
	c0.5,0,1.4,0,1.8,0c0.5,0,0-0.1-1-0.1C107.1,46.1,106.7,46.2,107.3,46.2 M199.2,46.2c0.5,0,1.4,0,1.9,0c0.5,0,0.1-0.1-1-0.1
	C199.2,46.1,198.7,46.2,199.2,46.2 M239.4,46.2c0.5,0,1.4,0,1.9,0c0.5,0,0.1-0.1-1-0.1C239.3,46.1,238.9,46.2,239.4,46.2
	 M280.1,46.2c0.4,0,1.1,0,1.6,0c0.4,0,0.1-0.1-0.8-0.1S279.6,46.2,280.1,46.2"/>
<path id="path10" class="st4" d="M293.5,18.7c0,7.9,0,11.1,0,7.1c0-4,0-10.4,0-14.3C293.5,7.5,293.5,10.8,293.5,18.7 M187.9,30.2
	c0,1.9,0,2.7,0.1,1.7c0-1,0-2.6,0-3.5C188,27.4,187.9,28.2,187.9,30.2 M103,27.9c3.1,0,8.2,0,11.3,0c3.1,0,0.5,0-5.7,0
	C102.4,27.8,99.9,27.8,103,27.9 M299.8,30.7c0,1.2,0,1.7,0.1,1.1c0-0.6,0-1.6,0-2.2C299.8,29,299.8,29.5,299.8,30.7 M219.4,30.8
	c0,1.2,0,1.7,0.1,1c0-0.6,0-1.6,0-2.2C219.5,29.1,219.4,29.6,219.4,30.8 M0,37.4c0,4.3,0,6,0,3.9c0-2.1,0-5.6,0-7.8
	C0,31.4,0,33.1,0,37.4 M221.4,30.7c0,0.5,0,0.6,0.1,0.4c0-0.3,0-0.6,0-0.8C221.5,30,221.4,30.2,221.4,30.7 M9.1,42.2
	c0,1.6,0,2.3,0.1,1.5c0-0.8,0-2.1,0-2.9C9.1,40,9.1,40.6,9.1,42.2 M16.7,39.9c1.3,0,3.4,0,4.8,0s0.2-0.1-2.4-0.1
	C16.4,39.8,15.4,39.8,16.7,39.9 M111.6,40.2c0.2,0,0.4,0,0.6,0c0.2,0,0-0.1-0.3-0.1C111.6,40.1,111.4,40.1,111.6,40.2 M198.8,40.2
	c0.4,0,1.1,0,1.5,0c0.4,0,0-0.1-0.8-0.1C198.6,40.1,198.3,40.2,198.8,40.2 M238.9,40.2c0.4,0,1.1,0,1.5,0c0.4,0,0-0.1-0.8-0.1
	C238.8,40.1,238.5,40.2,238.9,40.2 M279.1,40.2c0.4,0,1.1,0,1.5,0c0.4,0,0-0.1-0.8-0.1C279,40.1,278.7,40.2,279.1,40.2 M216.3,42.8
	l-0.5,0.5L216.3,42.8c0.6-0.4,0.7-0.5,0.5-0.5C216.8,42.2,216.6,42.5,216.3,42.8 M23.2,45.7c0.2,0,0.4,0,0.6,0c0.2,0,0-0.1-0.3-0.1
	S23.1,45.6,23.2,45.7 M-50.5-170.9"/>
<path id="path11" class="st5" d="M66,15.4c1,0,2.7,0,3.8,0c1,0,0.2-0.1-1.9-0.1C65.8,15.3,65,15.3,66,15.4 M66.8,21.4
	c0.6,0,1.5,0,2.1,0c0.6,0,0.1-0.1-1-0.1C66.7,21.3,66.3,21.3,66.8,21.4 M106.4,21.5c1,0,2.6,0,3.7,0c1,0,0.2-0.1-1.8-0.1
	S105.4,21.5,106.4,21.5 M198.6,21.5c1.1,0,2.8,0,3.9,0c1.1,0,0.2-0.1-2-0.1C198.4,21.5,197.5,21.5,198.6,21.5 M238.8,21.5
	c1.1,0,2.8,0,3.8,0c1,0,0.1-0.1-2-0.1C238.5,21.5,237.7,21.5,238.8,21.5 M278.9,21.5c1.1,0,2.8,0,3.8,0c1,0,0.1-0.1-2-0.1
	S277.8,21.5,278.9,21.5 M253.2,27.7c0,0.3,0,0.5,0.1,0.3c0-0.2,0-0.4,0-0.6C253.3,27.3,253.2,27.4,253.2,27.7 M88.9,29.1
	c0,0.4,0,0.6,0.1,0.4c0-0.2,0-0.5,0-0.8C89,28.5,88.9,28.7,88.9,29.1 M38.1,30.4c0,1,0,1.4,0.1,0.9c0-0.5,0-1.3,0-1.8
	C38.1,29,38.1,29.4,38.1,30.4 M48.6,31.5c0,1.4,0,1.9,0.1,1.2c0-0.7,0-1.8,0-2.5C48.6,29.5,48.6,30.1,48.6,31.5 M259.6,30.8
	c0,0.9,0,1.3,0.1,0.8c0-0.5,0-1.2,0-1.7C259.6,29.5,259.6,29.9,259.6,30.8 M88.9,32.7c0,0.4,0,0.5,0.1,0.3c0-0.2,0-0.5,0-0.7
	C88.9,32.1,88.9,32.3,88.9,32.7 M87.1,44.2c0,0.6,0,0.9,0.1,0.5c0-0.3,0-0.9,0-1.2C87.1,43.2,87.1,43.5,87.1,44.2"/>
<path id="path13" class="st6" d="M106.6,15.7c1,0,2.6,0,3.5,0c0.9,0,0.1-0.1-1.8-0.1C106.4,15.6,105.6,15.7,106.6,15.7 M127.2,15.7
	c0.9,0,2.4,0,3.3,0c0.9,0,0.1-0.1-1.7-0.1C127,15.6,126.2,15.7,127.2,15.7 M152.5,15.7c0.9,0,2.5,0,3.4,0c0.9,0,0.2-0.1-1.7-0.1
	C152.3,15.6,151.6,15.7,152.5,15.7 M178.2,15.7c0.9,0,2.4,0,3.3,0c0.9,0,0.1-0.1-1.7-0.1C178,15.6,177.2,15.7,178.2,15.7
	 M198.9,15.7c1,0,2.6,0,3.5,0c0.9,0,0.1-0.1-1.8-0.1C198.7,15.6,197.9,15.7,198.9,15.7 M239.1,15.7c1,0,2.6,0,3.5,0
	c0.9,0,0.1-0.1-1.8-0.1C238.9,15.6,238.1,15.7,239.1,15.7 M279.3,15.7c1,0,2.6,0,3.5,0c0.9,0,0.1-0.1-1.8-0.1
	C279,15.6,278.3,15.7,279.3,15.7 M6.3,29.3c0,0.6,0,0.9,0.1,0.5c0-0.3,0-0.9,0-1.2C6.3,28.4,6.3,28.7,6.3,29.3 M-50.5-170.9"/>
<path id="path14" class="st7" d="M290.6,19.1c0,1.1,0,1.6,0.1,1c0-0.6,0-1.5,0-2.1C290.6,17.5,290.6,17.9,290.6,19.1"/>
<path id="path16" class="st8" d="M299.8,19.5c0,4.9,0,7,0,4.4c0-2.5,0-6.6,0-9C299.8,12.5,299.8,14.5,299.8,19.5 M80.8,36.8
	c0,4.6,0,6.4,0,4.1c0-2.3,0-6.1,0-8.3C80.8,30.3,80.8,32.2,80.8,36.8 M-50.5-170.9"/>
<path id="path18" class="st9" d="M15.6,15.4c0.2,0,0.4,0,0.6,0c0.2,0,0-0.1-0.3-0.1S15.4,15.3,15.6,15.4 M88.9,30.8
	c0,0.6,0,0.8,0.1,0.5c0-0.3,0-0.7,0-1C89,30,88.9,30.3,88.9,30.8 M196.5,40.2c0.3,0,0.8,0,1,0c0.3,0,0-0.1-0.5-0.1
	C196.4,40.1,196.2,40.2,196.5,40.2 M201.7,40.2c0.3,0,0.8,0,1,0c0.2,0,0-0.1-0.5-0.1C201.6,40.1,201.4,40.2,201.7,40.2 M236.5,40.2
	c0.3,0,0.8,0,1,0c0.3,0,0-0.1-0.5-0.1C236.4,40.1,236.2,40.2,236.5,40.2 M241.7,40.2c0.3,0,0.8,0,1,0c0.2,0,0-0.1-0.5-0.1
	C241.6,40.1,241.4,40.2,241.7,40.2 M282.3,40.2c0.2,0,0.5,0,0.7,0c0.2,0,0-0.1-0.4-0.1C282.3,40.1,282.1,40.1,282.3,40.2 M15.2,45.7
	c0.3,0,0.7,0,0.9,0c0.3,0,0-0.1-0.5-0.1C15.2,45.6,15,45.6,15.2,45.7 M21.3,45.7c0.3,0,0.8,0,1.1,0s0.1-0.1-0.5-0.1
	S21,45.7,21.3,45.7 M141.1,45.7c0.8,0,2.1,0,3,0c0.9,0,0.2-0.1-1.5-0.1S140.3,45.7,141.1,45.7 M164.5,45.7c0.8,0,2.2,0,3.1,0
	c0.8,0,0.2-0.1-1.5-0.1C164.3,45.6,163.7,45.7,164.5,45.7 M-50.5-170.9"/>
<path id="path20" class="st10" d="M103.4,21.5c0.3,0,0.6,0,0.8,0c0.2,0,0-0.1-0.5-0.1C103.3,21.5,103.2,21.5,103.4,21.5 M112.5,21.5
	c0.2,0,0.5,0,0.7,0c0.2,0,0-0.1-0.4-0.1C112.4,21.4,112.3,21.5,112.5,21.5 M195.6,21.5c0.3,0,0.6,0,0.8,0c0.2,0,0-0.1-0.5-0.1
	C195.5,21.5,195.3,21.5,195.6,21.5 M204.7,21.5c0.2,0,0.5,0,0.8,0c0.2,0,0-0.1-0.4-0.1C204.6,21.4,204.5,21.5,204.7,21.5
	 M235.8,21.5c0.3,0,0.6,0,0.8,0c0.2,0,0-0.1-0.5-0.1C235.7,21.5,235.5,21.5,235.8,21.5 M244.8,21.5c0.2,0,0.5,0,0.8,0
	c0.2,0,0-0.1-0.4-0.1C244.8,21.4,244.6,21.5,244.8,21.5 M275.8,21.5c0.3,0,0.6,0,0.8,0c0.2,0,0-0.1-0.5-0.1
	C275.7,21.5,275.5,21.5,275.8,21.5 M285,21.5c0.2,0,0.5,0,0.8,0c0.2,0,0-0.1-0.4-0.1C285,21.4,284.8,21.5,285,21.5 M97.3,30.7
	c0,1.5,0,2.1,0.1,1.4c0-0.8,0-2,0-2.8C97.3,28.6,97.3,29.2,97.3,30.7 M48.6,39.1c0,2.7,0,3.8,0.1,2.5c0-1.4,0-3.6,0-4.9
	C48.6,35.3,48.6,36.4,48.6,39.1 M122.1,36.5c0.8,0,2.1,0,3,0c0.9,0,0.2-0.1-1.5-0.1C122,36.5,121.3,36.5,122.1,36.5 M0,51.6
	c0,2.9,0,4.1,0,2.6s0-3.8,0-5.2S0,48.7,0,51.6 M-50.5-170.9"/>
<path id="path21" class="st11" d="M49.3,4.2c0,0.4,0,0.5,0.1,0.3c0-0.2,0-0.5,0-0.7C49.3,3.6,49.2,3.8,49.3,4.2"/>
<path id="path22" class="st12" d="M295.1,4.4c0.8,0,2.1,0,3,0c0.9,0,0.2-0.1-1.4-0.1C295,4.3,294.3,4.3,295.1,4.4 M299.8,7.4
	c0,1.7,0,2.4,0.1,1.5c0-0.8,0-2.2,0-3.1C299.8,5,299.8,5.7,299.8,7.4 M16.8,15.4c0.3,0,0.7,0,1,0c0.2,0,0-0.1-0.5-0.1
	C16.7,15.3,16.5,15.3,16.8,15.4 M20.8,15.4c0.3,0,0.7,0,0.9,0c0.3,0,0-0.1-0.5-0.1C20.7,15.3,20.5,15.3,20.8,15.4 M43,15.5l3,0.1
	l0,14.9l0,14.9l0-14.9l0-14.9L43,15.5l-3-0.1L43,15.5 M18.6,21.2c0.8,0,2.1,0,2.9,0c0.8,0,0.1-0.1-1.5-0.1S17.8,21.2,18.6,21.2
	 M64.4,21.4c0.3,0,0.6,0,0.8,0c0.2,0,0-0.1-0.5-0.1C64.3,21.3,64.2,21.3,64.4,21.4 M70.5,21.4c0.2,0,0.5,0,0.8,0
	c0.2,0,0-0.1-0.4-0.1C70.5,21.3,70.3,21.3,70.5,21.4 M221.6,29.2c0,0.5,0,0.6,0.1,0.4c0-0.3,0-0.6,0-0.8
	C221.6,28.5,221.6,28.7,221.6,29.2 M221.6,32.6c0,0.4,0,0.6,0.1,0.4c0-0.2,0-0.5,0-0.8C221.6,32,221.6,32.2,221.6,32.6 M103.9,46
	c0.2,0,0.4,0,0.6,0c0.2,0,0-0.1-0.3-0.1C103.9,45.9,103.8,46,103.9,46 M236.1,46c0.2,0,0.4,0,0.6,0c0.2,0,0-0.1-0.3-0.1
	C236.1,45.9,235.9,46,236.1,46 M243.9,46c0.2,0,0.4,0,0.6,0c0.2,0,0-0.1-0.3-0.1C243.9,45.9,243.8,46,243.9,46 M276.2,46
	c0.2,0,0.4,0,0.6,0c0.2,0,0-0.1-0.3-0.1S276.1,46,276.2,46"/>
<path id="path23" class="st13" d="M46,1.5C43.3,2,40.4,5.9,40.4,9c0,2.1,1.5,3.2,3.4,2.6C49.4,9.7,51.5,0.3,46,1.5"/>
<path id="path24" class="st14" d="M126.9,28.6c0,0.3,0,0.5,0.1,0.3c0-0.2,0-0.4,0-0.6C126.9,28.1,126.9,28.2,126.9,28.6 M213.3,30.3
	c0,1.2,0,1.7,0.1,1c0-0.6,0-1.6,0-2.2C213.3,28.6,213.3,29.1,213.3,30.3 M253.4,30.5c0,1.2,0,1.7,0.1,1c0-0.6,0-1.6,0-2.2
	C253.5,28.8,253.4,29.3,253.4,30.5 M54.8,37c0,4.6,0,6.4,0,4.1c0-2.3,0-6.1,0-8.3C54.8,30.5,54.8,32.4,54.8,37 M181.4,30.7
	c0,1.1,0,1.5,0.1,1c0-0.5,0-1.4,0-1.9C181.5,29.2,181.4,29.7,181.4,30.7 M203.5,40.2c0.2,0,0.5,0,0.7,0c0.2,0,0-0.1-0.4-0.1
	C203.4,40.1,203.3,40.1,203.5,40.2 M243.7,40.2c0.2,0,0.5,0,0.7,0c0.2,0,0-0.1-0.4-0.1C243.6,40.1,243.5,40.1,243.7,40.2
	 M283.7,40.2c0.2,0,0.5,0,0.7,0c0.2,0,0-0.1-0.4-0.1C283.6,40.1,283.5,40.1,283.7,40.2 M264.2,42.3c0,0,0.2,0.3,0.5,0.5l0.5,0.5
	l-0.5-0.5C264.3,42.3,264.2,42.2,264.2,42.3 M17.7,45.7c0.6,0,1.5,0,2,0c0.5,0,0.1-0.1-1-0.1C17.5,45.6,17.1,45.7,17.7,45.7"/>
<path id="path25" class="st15" d="M18.8,15.4c0.3,0,0.7,0,0.9,0c0.3,0,0-0.1-0.5-0.1C18.7,15.3,18.5,15.3,18.8,15.4 M31.6,31.3
	c0,1.6,0,2.2,0.1,1.5c0-0.8,0-2,0-2.8C31.6,29.1,31.6,29.8,31.6,31.3 M261.8,30.9c0,1.2,0,1.7,0.1,1.1c0-0.6,0-1.6,0-2.2
	C261.8,29.2,261.8,29.7,261.8,30.9 M221.6,30.9c0,0.6,0,0.8,0.1,0.5s0-0.8,0-1.1C221.6,30.1,221.6,30.3,221.6,30.9 M105.4,40.4
	c0.7,0,1.9,0,2.6,0c0.7,0,0.1-0.1-1.3-0.1C105.3,40.3,104.7,40.3,105.4,40.4 M48.6,44.6c0,0.3,0,0.5,0.1,0.3c0-0.2,0-0.4,0-0.6
	C48.6,44.1,48.6,44.2,48.6,44.6 M50.2,45.4c0.8,0,2.2,0,3.1,0s0.2-0.1-1.5-0.1C50,45.3,49.3,45.3,50.2,45.4 M82.5,45.4
	c0.8,0,2.2,0,3.1,0c0.8,0,0.2-0.1-1.5-0.1S81.7,45.3,82.5,45.4 M105.1,46c0.3,0,0.6,0,0.8,0c0.2,0,0-0.1-0.5-0.1
	C105,46,104.8,46,105.1,46 M197,46c0.2,0,0.5,0,0.8,0c0.2,0,0-0.1-0.4-0.1C197,45.9,196.8,46,197,46 M202.5,46c0.2,0,0.5,0,0.7,0
	c0.2,0,0-0.1-0.4-0.1C202.4,45.9,202.3,46,202.5,46 M237.3,46c0.2,0,0.5,0,0.7,0c0.2,0,0-0.1-0.4-0.1C237.3,45.9,237.1,46,237.3,46
	 M242.7,46c0.2,0,0.5,0,0.8,0c0.2,0,0-0.1-0.4-0.1C242.6,45.9,242.5,46,242.7,46 M1.6,57c0.8,0,2.1,0,3,0C5.4,57,4.8,57,3.1,57
	S0.8,57,1.6,57"/>
<path id="path26" class="st16" d="M103.8,15.9c0.2,0,0.5,0,0.7,0c0.2,0,0-0.1-0.4-0.1C103.8,15.8,103.6,15.8,103.8,15.9 M112.2,15.9
	c0.2,0,0.5,0,0.7,0c0.2,0,0-0.1-0.4-0.1C112.1,15.8,112,15.8,112.2,15.9 M196.2,15.9c0.2,0,0.5,0,0.8,0c0.2,0,0-0.1-0.4-0.1
	C196.1,15.8,196,15.8,196.2,15.9 M204.5,15.9c0.2,0,0.5,0,0.7,0c0.2,0,0-0.1-0.4-0.1S204.3,15.8,204.5,15.9 M236.3,15.9
	c0.2,0,0.5,0,0.7,0c0.2,0,0-0.1-0.4-0.1C236.3,15.8,236.1,15.8,236.3,15.9 M244.7,15.9c0.2,0,0.5,0,0.7,0c0.2,0,0-0.1-0.4-0.1
	C244.6,15.8,244.5,15.8,244.7,15.9 M276.5,15.9c0.2,0,0.5,0,0.7,0c0.2,0,0-0.1-0.4-0.1S276.3,15.8,276.5,15.9 M284.8,15.9
	c0.2,0,0.5,0,0.7,0c0.2,0,0-0.1-0.4-0.1C284.8,15.8,284.6,15.8,284.8,15.9 M253.4,27.7c0,0.3,0,0.5,0.1,0.3c0-0.2,0-0.4,0-0.6
	S253.4,27.4,253.4,27.7 M6.1,43.7c0,7.3,0,10.3,0,6.6c0-3.6,0-9.6,0-13.2C6.1,33.5,6.1,36.4,6.1,43.7 M253.4,33.1
	c0,0.3,0,0.5,0.1,0.3c0-0.2,0-0.4,0-0.6C253.4,32.6,253.4,32.7,253.4,33.1"/>
<path id="path27" class="st17" d="M293.6,18.7c0,7.8,0,11,0,7.1c0-3.9,0-10.3,0-14.2C293.6,7.7,293.6,10.9,293.6,18.7 M65.9,15.5
	c1,0,2.6,0,3.7,0c1,0,0.2-0.1-1.8-0.1S64.9,15.5,65.9,15.5 M15.9,21.2c0.3,0,0.6,0,0.8,0c0.2,0,0-0.1-0.5-0.1
	C15.8,21.1,15.7,21.1,15.9,21.2 M23.4,21.2c0.2,0,0.4,0,0.6,0c0.2,0,0-0.1-0.3-0.1C23.4,21.1,23.3,21.1,23.4,21.2 M103.1,28
	c3.1,0,8.2,0,11.2,0c3.1,0,0.6,0-5.6,0C102.5,28,100,28,103.1,28 M89.1,29.1c0,0.4,0,0.6,0.1,0.4c0-0.2,0-0.5,0-0.8
	C89.1,28.5,89.1,28.7,89.1,29.1 M227.9,29.7c0,0.7,0,1,0.1,0.6c0-0.4,0-1,0-1.3C228,28.6,227.9,28.9,227.9,29.7 M37.9,30.5
	c0,0.9,0,1.3,0.1,0.8c0-0.5,0-1.2,0-1.7C38,29.2,37.9,29.6,37.9,30.5 M86.9,31.1c0,1.1,0,1.6,0.1,1c0-0.6,0-1.5,0-2.1
	C87,29.5,86.9,29.9,86.9,31.1 M89.1,32.6c0,0.4,0,0.6,0.1,0.4c0-0.2,0-0.5,0-0.8C89.1,32,89.1,32.2,89.1,32.6 M107.1,46
	c0.5,0,1.4,0,1.9,0c0.5,0,0.1-0.1-1-0.1S106.6,46,107.1,46 M199.2,46c0.5,0,1.4,0,1.9,0c0.5,0,0.1-0.1-1-0.1
	C199.2,46,198.7,46,199.2,46 M239.4,46c0.5,0,1.4,0,1.9,0c0.5,0,0.1-0.1-1-0.1C239.3,46,238.9,46,239.4,46 M279.5,46
	c0.6,0,1.5,0,2,0c0.5,0,0.1-0.1-1-0.1S278.9,46,279.5,46"/>
<path id="path28" class="st18" d="M106.6,15.9c1,0,2.6,0,3.5,0c0.9,0,0.1-0.1-1.8-0.1S105.6,15.8,106.6,15.9 M125.7,15.9
	c0,0.1,0.9,0.1,2.1,0.1c4-0.1,4.4-0.1,1.2-0.2C127.2,15.7,125.7,15.8,125.7,15.9 M152.5,15.9c0.9,0,2.5,0,3.4,0s0.2-0.1-1.7-0.1
	C152.3,15.8,151.6,15.8,152.5,15.9 M178.1,15.9c0.9,0,2.4,0,3.2,0c0.9,0,0.2-0.1-1.6-0.1C177.9,15.8,177.2,15.8,178.1,15.9
	 M198.9,15.9c1,0,2.6,0,3.6,0c1,0,0.2-0.1-1.8-0.1C198.7,15.8,197.9,15.8,198.9,15.9 M239.1,15.9c1,0,2.6,0,3.5,0
	c0.9,0,0.1-0.1-1.8-0.1S238.1,15.8,239.1,15.9 M279.3,15.9c1,0,2.6,0,3.5,0c0.9,0,0.1-0.1-1.8-0.1C279,15.8,278.3,15.8,279.3,15.9
	 M95.4,30.4c0,2.4,0,3.4,0.1,2.2c0-1.2,0-3.2,0-4.4C95.5,27,95.4,28,95.4,30.4 M268.1,30.1c0,1.9,0,2.6,0.1,1.7c0-0.9,0-2.5,0-3.4
	C268.1,27.4,268.1,28.2,268.1,30.1 M187.8,30.2c0,1.8,0,2.6,0.1,1.7c0-0.9,0-2.4,0-3.3C187.8,27.6,187.8,28.3,187.8,30.2 M6.1,29.2
	c0,0.7,0,1,0.1,0.6c0-0.3,0-0.9,0-1.2C6.1,28.3,6.1,28.5,6.1,29.2 M299.6,30.7c0,1.2,0,1.7,0.1,1.1c0-0.6,0-1.6,0-2.2
	C299.6,29,299.6,29.5,299.6,30.7 M126.9,29.8c0,0.4,0,0.5,0.1,0.3c0-0.2,0-0.5,0-0.7C126.9,29.3,126.9,29.5,126.9,29.8 M16.6,40
	c1.4,0,3.5,0,4.8,0c1.3,0,0.2-0.1-2.5-0.1C16.3,40,15.2,40,16.6,40 M41.5,45.5c0.8,0,2.2,0,3.1,0c0.8,0,0.2-0.1-1.5-0.1
	S40.7,45.5,41.5,45.5"/>
<path id="path29" class="st19" d="M299.6,19.6c0,5,0,7,0,4.5c0-2.5,0-6.6,0-9.1C299.6,12.5,299.6,14.6,299.6,19.6 M15.5,15.5
	c0.2,0,0.5,0,0.7,0c0.2,0,0-0.1-0.4-0.1C15.4,15.4,15.3,15.5,15.5,15.5 M31.6,27.9c0,0.4,0,0.6,0.1,0.4c0-0.2,0-0.5,0-0.8
	C31.6,27.3,31.6,27.5,31.6,27.9 M0.1,28.9c0,0.4,0,0.6,0.1,0.4c0-0.2,0-0.5,0-0.8C0.1,28.3,0.1,28.5,0.1,28.9 M81,37
	c0,4.6,0,6.4,0,4.1c0-2.3,0-6.1,0-8.3C81,30.5,81,32.4,81,37 M268.1,33.9c0,0.3,0,0.5,0.1,0.3c0-0.2,0-0.4,0-0.6
	C268.1,33.4,268.1,33.6,268.1,33.9 M13.4,40c0.2,0,0.4,0,0.6,0c0.2,0,0-0.1-0.3-0.1C13.4,39.9,13.3,40,13.4,40 M23.9,40
	c0.2,0,0.4,0,0.6,0c0.2,0,0-0.1-0.3-0.1C23.9,39.9,23.8,40,23.9,40 M102.8,40.4c0.3,0,0.6,0,0.8,0c0.2,0,0-0.1-0.5-0.1
	C102.7,40.3,102.5,40.3,102.8,40.4 M109.8,40.4c0.3,0,0.7,0,1,0c0.2,0,0-0.1-0.5-0.1C109.7,40.3,109.5,40.3,109.8,40.4 M13.9,45.5
	c0.2,0,0.4,0,0.6,0c0.2,0,0-0.1-0.3-0.1C13.9,45.4,13.8,45.5,13.9,45.5 M23.2,45.5c0.2,0,0.4,0,0.6,0c0.2,0,0-0.1-0.3-0.1
	S23.1,45.5,23.2,45.5"/>
<path id="path30" class="st20" d="M299.6,10c0,0.4,0,0.5,0.1,0.3c0-0.2,0-0.5,0-0.7C299.6,9.4,299.6,9.6,299.6,10 M31.6,26.7
	c0,0.3,0,0.5,0.1,0.3c0-0.2,0-0.4,0-0.6S31.6,26.4,31.6,26.7 M97.5,30.7l0,2.6l13.2,0l13.2,0l-13.2,0l-13.2,0L97.5,30.7l0-2.6
	L97.5,30.7 M0.1,43.2c0,7.6,0,10.7,0,6.9c0-3.8,0-10,0-13.8C0.1,32.6,0.1,35.7,0.1,43.2 M89.1,30.8c0,0.6,0,0.8,0.1,0.5
	c0-0.3,0-0.7,0-1C89.1,30,89.1,30.3,89.1,30.8 M101.3,40.4c0.2,0,0.5,0,0.8,0c0.2,0,0-0.1-0.4-0.1C101.3,40.3,101.1,40.3,101.3,40.4
	 M111.7,40.4c0.3,0,0.8,0,1.1,0c0.3,0,0.1-0.1-0.5-0.1C111.6,40.3,111.4,40.3,111.7,40.4 M197.6,40.4c1,0,2.6,0,3.7,0
	s0.2-0.1-1.8-0.1C197.4,40.3,196.6,40.3,197.6,40.4 M237.7,40.4c1,0,2.6,0,3.7,0c1,0,0.2-0.1-1.8-0.1
	C237.6,40.3,236.8,40.3,237.7,40.4 M277.9,40.4c1,0,2.6,0,3.7,0c1,0,0.2-0.1-1.8-0.1S276.9,40.3,277.9,40.4 M296.4,42.6l-0.5,0.5
	L296.4,42.6c0.6-0.4,0.7-0.5,0.5-0.5C297,42.1,296.7,42.3,296.4,42.6 M11.4,45.4c0.2,0,0.4,0,0.6,0c0.2,0,0-0.1-0.3-0.1
	C11.4,45.3,11.3,45.3,11.4,45.4 M25.8,45.4c0.2,0,0.4,0,0.6,0c0.2,0,0-0.1-0.3-0.1S25.6,45.3,25.8,45.4 M15.2,45.5
	c0.3,0,0.8,0,1.1,0c0.3,0,0.1-0.1-0.5-0.1C15.1,45.5,14.9,45.5,15.2,45.5 M21.2,45.5c0.3,0,0.9,0,1.2,0c0.3,0,0.1-0.1-0.6-0.1
	C21.2,45.5,20.9,45.5,21.2,45.5 M141.1,45.5c0.8,0,2.1,0,3,0c0.9,0,0.2-0.1-1.5-0.1S140.3,45.5,141.1,45.5 M164.5,45.5
	c0.8,0,2.2,0,3.1,0c0.8,0,0.2-0.1-1.5-0.1C164.3,45.5,163.7,45.5,164.5,45.5 M103.7,45.9c0.2,0,0.4,0,0.6,0c0.2,0,0-0.1-0.3-0.1
	S103.6,45.8,103.7,45.9 M195.9,45.9c0.2,0,0.4,0,0.6,0c0.2,0,0-0.1-0.3-0.1C195.9,45.8,195.8,45.8,195.9,45.9 M244.1,45.9
	c0.2,0,0.4,0,0.6,0c0.2,0,0-0.1-0.3-0.1C244.1,45.8,243.9,45.8,244.1,45.9 M276.1,45.9c0.2,0,0.4,0,0.6,0c0.2,0,0-0.1-0.3-0.1
	C276.1,45.8,275.9,45.8,276.1,45.9 M284.2,45.9c0.2,0,0.4,0,0.6,0c0.2,0,0-0.1-0.3-0.1S284.1,45.8,284.2,45.9"/>
<path id="path31" class="st21" d="M295,4.5c0.8,0,2,0,2.7,0s0.1-0.1-1.4-0.1S294.2,4.5,295,4.5 M299.6,7.5c0,1.1,0,1.5,0.1,1
	c0-0.6,0-1.5,0-2C299.6,5.9,299.6,6.4,299.6,7.5 M224.6,19.1l-0.5,0.5L224.6,19.1c0.6-0.4,0.7-0.5,0.5-0.5
	C225.1,18.6,224.9,18.8,224.6,19.1 M264.6,19.3l-0.5,0.5L264.6,19.3c0.6-0.4,0.7-0.5,0.5-0.5C265.1,18.7,264.9,19,264.6,19.3
	 M100.5,21.5c0.2,0,0.5,0,0.8,0c0.2,0,0-0.1-0.4-0.1C100.5,21.4,100.3,21.5,100.5,21.5 M115.2,21.5c0.2,0,0.5,0,0.7,0
	c0.2,0,0-0.1-0.4-0.1C115.1,21.4,115,21.5,115.2,21.5 M192.7,21.5c0.2,0,0.5,0,0.7,0c0.2,0,0-0.1-0.4-0.1
	C192.6,21.4,192.5,21.5,192.7,21.5 M207.5,21.5c0.2,0,0.5,0,0.7,0c0.2,0,0-0.1-0.4-0.1C207.4,21.4,207.3,21.5,207.5,21.5
	 M232.8,21.5c0.2,0,0.5,0,0.8,0c0.2,0,0-0.1-0.4-0.1C232.8,21.4,232.6,21.5,232.8,21.5 M247.7,21.5c0.2,0,0.5,0,0.7,0
	c0.2,0,0-0.1-0.4-0.1C247.6,21.4,247.5,21.5,247.7,21.5 M273,21.5c0.2,0,0.5,0,0.8,0c0.2,0,0-0.1-0.4-0.1
	C273,21.4,272.8,21.5,273,21.5 M287.8,21.5c0.2,0,0.4,0,0.6,0c0.2,0,0-0.1-0.3-0.1S287.6,21.5,287.8,21.5 M0.3,27.2
	c0,0.6,0,0.8,0.1,0.5c0-0.3,0-0.8,0-1C0.3,26.4,0.3,26.6,0.3,27.2 M126.8,28.7c0,0.4,0,0.5,0.1,0.3c0-0.2,0-0.5,0-0.7
	C126.8,28.1,126.7,28.3,126.8,28.7 M31.8,31.4c0,1.5,0,2.1,0.1,1.4c0-0.8,0-2,0-2.8C31.8,29.3,31.8,29.9,31.8,31.4 M123.4,36.7
	c2.6,0,3,0.1,3,0.3c0.1,0.2,0.1,0.2,0.1-0.1l0-0.4L123.4,36.7l-2.9-0.1L123.4,36.7 M195.1,40.4c0.2,0,0.4,0,0.6,0
	c0.2,0,0-0.1-0.3-0.1S194.9,40.3,195.1,40.4 M203.4,40.4c0.3,0,0.6,0,0.8,0c0.2,0,0-0.1-0.5-0.1C203.3,40.3,203.2,40.3,203.4,40.4
	 M235.2,40.4c0.2,0,0.5,0,0.7,0c0.2,0,0-0.1-0.4-0.1C235.1,40.3,235,40.3,235.2,40.4 M243.6,40.4c0.3,0,0.6,0,0.8,0
	c0.2,0,0-0.1-0.5-0.1C243.5,40.3,243.3,40.3,243.6,40.4 M275.3,40.4c0.2,0,0.5,0,0.7,0c0.2,0,0-0.1-0.4-0.1
	C275.3,40.3,275.1,40.3,275.3,40.4 M283.8,40.4c0.3,0,0.6,0,0.8,0c0.2,0,0-0.1-0.5-0.1C283.7,40.3,283.5,40.3,283.8,40.4
	 M105.3,40.5c0.8,0,2,0,2.8,0c0.8,0,0.1-0.1-1.4-0.1C105.2,40.5,104.6,40.5,105.3,40.5 M256.2,42.7l-0.6,0.6L256.2,42.7
	c0.4-0.3,0.7-0.5,0.7-0.6C256.9,42,256.7,42.1,256.2,42.7 M251,45.1c-0.3,0.1-0.4,0.1-0.1,0.1c0.2,0,0.5-0.1,0.7-0.1
	C252,44.9,251.6,44.9,251,45.1 M10.1,45.2c0.2,0,0.4,0,0.6,0c0.2,0,0-0.1-0.3-0.1S9.9,45.1,10.1,45.2 M27.2,45.2c0.2,0,0.4,0,0.6,0
	c0.2,0,0-0.1-0.3-0.1S27.1,45.1,27.2,45.2 M50.2,45.2c0.8,0,2.2,0,3.1,0c0.8,0,0.2-0.1-1.5-0.1C50,45.1,49.3,45.2,50.2,45.2
	 M82.5,45.2c0.8,0,2.2,0,3.1,0c0.8,0,0.2-0.1-1.5-0.1S81.7,45.2,82.5,45.2 M17.7,45.5c0.6,0,1.5,0,2.1,0c0.6,0,0.1-0.1-1-0.1
	C17.6,45.5,17.1,45.5,17.7,45.5 M1.6,56.9c0.8,0,2.1,0,3,0c0.9,0,0.2-0.1-1.5-0.1C1.5,56.8,0.8,56.8,1.6,56.9"/>
</svg>
