<?xml version="1.0" encoding="utf-8"?>
<!-- Generator: Adobe Illustrator 27.7.0, SVG Export Plug-In . SVG Version: 6.00 Build 0)  -->
<svg version="1.1" id="Layer_1" xmlns="http://www.w3.org/2000/svg" xmlns:xlink="http://www.w3.org/1999/xlink" x="0px" y="0px"
	 viewBox="0 0 300 51.15" style="enable-background:new 0 0 300 51.15;" xml:space="preserve">
<style type="text/css">
	.st0{fill:#FFFFFF;}
	.st1{fill:#DCDDDE;}
</style>
<g>
	<path class="st0" d="M112.1,3.32c2.06,0,3.8,0.72,5.23,2.16c1.42,1.44,2.13,3.19,2.13,5.24c0,2.06-0.7,3.78-2.11,5.14
		c-1.41,1.36-3.16,2.05-5.25,2.05h-4.56v9.41h-6.11v-24H112.1z M111.1,12.96c0.72,0,1.31-0.21,1.78-0.62
		c0.47-0.42,0.7-0.94,0.7-1.58c0-0.61-0.23-1.12-0.7-1.52c-0.47-0.4-1.06-0.6-1.78-0.6h-3.56v4.33H111.1z"/>
	<path class="st0" d="M136.37,3.32h6.12v24h-6.12v-9.36h-8.64v9.36h-6.11v-24h6.11v9.31h8.64V3.32z"/>
	<path class="st0" d="M158.41,27.63c-1.68,0-3.28-0.32-4.8-0.98c-1.53-0.65-2.84-1.53-3.94-2.62c-1.1-1.1-1.97-2.41-2.62-3.93
		c-0.65-1.52-0.97-3.11-0.97-4.78c0-1.67,0.32-3.26,0.97-4.78c0.65-1.52,1.52-2.83,2.62-3.93c1.1-1.1,2.41-1.97,3.94-2.62
		c1.53-0.65,3.13-0.98,4.8-0.98c1.67,0,3.26,0.33,4.78,0.98c1.52,0.65,2.83,1.53,3.93,2.62c1.1,1.1,1.97,2.41,2.62,3.93
		c0.65,1.52,0.98,3.11,0.98,4.78c0,1.67-0.33,3.26-0.98,4.78c-0.65,1.52-1.53,2.83-2.62,3.93c-1.1,1.1-2.41,1.97-3.93,2.62
		C161.67,27.3,160.08,27.63,158.41,27.63z M158.41,21.63c1.8,0,3.3-0.6,4.51-1.8c1.2-1.2,1.8-2.7,1.8-4.52s-0.6-3.32-1.8-4.52
		c-1.2-1.2-2.71-1.8-4.51-1.8c-1.82,0-3.34,0.6-4.55,1.8c-1.21,1.2-1.82,2.7-1.82,4.52s0.61,3.32,1.82,4.52
		C155.07,21.03,156.59,21.63,158.41,21.63z"/>
	<path class="st0" d="M189.52,3.32v5.31h-5.89v18.69h-6.08V8.63h-5.88V3.32H189.52z"/>
	<path class="st0" d="M191.55,27.32v-24h6.11v24H191.55z"/>
</g>
<g>
	<path class="st1" d="M121.8,48.37c-0.22,0.22-0.49,0.33-0.79,0.33s-0.56-0.11-0.79-0.33c-0.23-0.22-0.34-0.48-0.34-0.79
		c0-0.29,0.11-0.55,0.34-0.77c0.23-0.22,0.49-0.33,0.79-0.33s0.56,0.11,0.79,0.33c0.22,0.22,0.34,0.47,0.34,0.77
		C122.14,47.89,122.03,48.15,121.8,48.37z"/>
	<path class="st1" d="M127.93,48.7c-0.77,0-1.48-0.2-2.12-0.61c-0.65-0.4-1.07-0.9-1.27-1.49l1.12-0.45c0.1,0.4,0.37,0.73,0.81,1
		c0.44,0.27,0.93,0.41,1.46,0.41c0.54,0,1-0.15,1.37-0.44c0.37-0.3,0.56-0.7,0.56-1.21c0-0.2-0.04-0.37-0.11-0.54
		c-0.07-0.16-0.16-0.3-0.26-0.42c-0.1-0.11-0.25-0.23-0.45-0.35s-0.38-0.21-0.55-0.29c-0.17-0.08-0.4-0.17-0.68-0.28
		c-0.45-0.17-0.83-0.34-1.14-0.51c-0.31-0.17-0.6-0.37-0.87-0.6c-0.27-0.23-0.47-0.5-0.6-0.82s-0.2-0.66-0.2-1.05
		c0-0.86,0.28-1.53,0.85-2.02c0.57-0.48,1.22-0.73,1.97-0.73c0.59,0,1.14,0.15,1.66,0.44s0.89,0.64,1.09,1.05l-1.01,0.55
		c-0.34-0.58-0.91-0.87-1.7-0.87c-0.49,0-0.89,0.13-1.22,0.38s-0.48,0.63-0.48,1.14c0,0.21,0.04,0.4,0.11,0.57
		c0.07,0.17,0.15,0.31,0.25,0.42c0.09,0.11,0.25,0.23,0.45,0.35c0.21,0.12,0.39,0.22,0.55,0.29c0.16,0.07,0.39,0.17,0.69,0.29
		c0.34,0.14,0.61,0.25,0.82,0.35s0.45,0.24,0.73,0.42c0.28,0.18,0.5,0.37,0.66,0.56c0.16,0.19,0.3,0.43,0.42,0.72
		c0.12,0.29,0.18,0.61,0.18,0.95c0,0.8-0.3,1.46-0.9,1.99C129.53,48.44,128.8,48.7,127.93,48.7z"/>
	<path class="st1" d="M138.18,39.66h-2.75v6.3c0,0.47,0.15,0.85,0.46,1.15c0.31,0.3,0.69,0.45,1.14,0.45h1.12v0.82
		c-0.33,0.21-0.75,0.32-1.25,0.32c-0.72,0-1.34-0.25-1.87-0.77c-0.52-0.51-0.78-1.12-0.78-1.83v-6.45h-1.67v-1.15h1.67v-4.35h1.17
		v4.35h2.75V39.66z"/>
	<path class="st1" d="M147.02,47.63c-0.69,0.71-1.57,1.07-2.64,1.07s-1.95-0.35-2.63-1.06c-0.68-0.71-1.02-1.63-1.02-2.75v-6.38
		h1.15v6.25c0,0.81,0.24,1.48,0.72,2s1.07,0.78,1.78,0.78c0.73,0,1.33-0.26,1.81-0.77c0.48-0.51,0.72-1.18,0.72-2v-6.25h1.14v6.38
		C148.05,46,147.7,46.92,147.02,47.63z"/>
	<path class="st1" d="M160.12,30.11h1.17v18.4h-1.17v-1.7c-0.48,0.59-1.07,1.05-1.78,1.39c-0.7,0.34-1.45,0.51-2.25,0.51
		c-0.94,0-1.81-0.23-2.61-0.69c-0.8-0.46-1.43-1.09-1.89-1.89c-0.47-0.8-0.7-1.67-0.7-2.61c0-0.94,0.23-1.81,0.7-2.61
		c0.47-0.8,1.1-1.43,1.89-1.89c0.8-0.46,1.67-0.69,2.61-0.69c0.79,0,1.54,0.17,2.25,0.51c0.7,0.34,1.3,0.8,1.78,1.39V30.11z
		 M156.09,47.53c1.11,0,2.06-0.39,2.85-1.17s1.18-1.73,1.18-2.85c0-1.12-0.39-2.07-1.18-2.85s-1.73-1.17-2.85-1.17
		c-1.13,0-2.08,0.39-2.87,1.17s-1.18,1.73-1.18,2.85c0,1.12,0.39,2.07,1.18,2.85S154.97,47.53,156.09,47.53z"/>
	<path class="st1" d="M166,36.58c-0.25,0-0.47-0.09-0.65-0.26s-0.27-0.39-0.27-0.63c0-0.26,0.09-0.48,0.27-0.66
		c0.18-0.18,0.4-0.27,0.65-0.27s0.47,0.09,0.65,0.27c0.18,0.18,0.27,0.4,0.27,0.66c0,0.25-0.09,0.46-0.27,0.63
		S166.24,36.58,166,36.58z M165.42,48.51v-10h1.14v10H165.42z"/>
	<path class="st1" d="M175.17,48.7c-0.94,0-1.81-0.23-2.61-0.69c-0.8-0.46-1.43-1.09-1.89-1.89c-0.47-0.8-0.7-1.67-0.7-2.61
		c0-0.94,0.23-1.81,0.7-2.61c0.47-0.8,1.1-1.43,1.89-1.89c0.8-0.46,1.67-0.69,2.61-0.69c1.43,0,2.66,0.51,3.67,1.52
		s1.52,2.24,1.52,3.67c0,1.43-0.51,2.66-1.52,3.67S176.6,48.7,175.17,48.7z M175.17,47.53c1.11,0,2.06-0.39,2.85-1.17
		s1.18-1.73,1.18-2.85c0-1.12-0.39-2.07-1.18-2.85s-1.73-1.17-2.85-1.17c-1.13,0-2.08,0.39-2.87,1.17s-1.18,1.73-1.18,2.85
		c0,1.12,0.39,2.07,1.18,2.85S174.04,47.53,175.17,47.53z"/>
</g>
</svg>
